<svg width="200" height="22" viewBox="0 0 200 22" fill="none" xmlns="http://www.w3.org/2000/svg">
<path d="M8.85 0.210012C11.07 0.210012 13.01 0.660012 14.67 1.56001C16.35 2.46001 17.64 3.71001 18.54 5.31001C19.44 6.91001 19.89 8.73001 19.89 10.77C19.89 12.79 19.44 14.61 18.54 16.23C17.64 17.85 16.35 19.13 14.67 20.07C13.01 20.99 11.07 21.45 8.85 21.45H2.23517e-08V0.210012H8.85ZM8.25 15.51C9.75 15.51 10.94 15.1 11.82 14.28C12.7 13.46 13.14 12.29 13.14 10.77C13.14 9.25001 12.7 8.08001 11.82 7.26001C10.94 6.44001 9.75 6.03001 8.25 6.03001H6.66V15.51H8.25ZM28.9549 5.52001V8.13001H35.5549V13.14H28.9549V16.14H36.4549V21.45H22.2949V0.210012H36.4549V5.52001H28.9549ZM59.3348 21.45H52.6748L45.6248 10.77V21.45H38.9648V0.210012H45.6248L52.6748 11.07V0.210012H59.3348V21.45ZM79.0238 0.210012V5.49001H73.3838V21.45H66.7238V5.49001H61.1438V0.210012H79.0238ZM94.4501 18.24H87.3701L86.3201 21.45H79.3301L87.1001 0.210012H94.7801L102.52 21.45H95.5001L94.4501 18.24ZM92.8301 13.23L90.9101 7.32001L88.9901 13.23H92.8301ZM110.693 16.41H117.113V21.45H104.033V0.210012H110.693V16.41Z" fill="#0F2650"/>
<path d="M118.609 10.8C118.609 8.70001 119.029 6.83001 119.869 5.19001C120.729 3.55001 121.949 2.28001 123.529 1.38001C125.109 0.460011 126.969 1.12057e-05 129.109 1.12057e-05C130.949 1.12057e-05 132.589 0.350011 134.029 1.05001C135.489 1.73001 136.669 2.70001 137.569 3.96001C138.489 5.22001 139.099 6.69001 139.399 8.37001H132.379C132.059 7.67001 131.599 7.13001 130.999 6.75001C130.419 6.35001 129.749 6.15001 128.989 6.15001C127.869 6.15001 126.979 6.57001 126.319 7.41001C125.679 8.25001 125.359 9.38001 125.359 10.8C125.359 12.22 125.679 13.35 126.319 14.19C126.979 15.03 127.869 15.45 128.989 15.45C129.749 15.45 130.419 15.26 130.999 14.88C131.599 14.48 132.059 13.93 132.379 13.23H139.399C139.099 14.91 138.489 16.38 137.569 17.64C136.669 18.9 135.489 19.88 134.029 20.58C132.589 21.26 130.949 21.6 129.109 21.6C126.969 21.6 125.109 21.15 123.529 20.25C121.949 19.33 120.729 18.05 119.869 16.41C119.029 14.77 118.609 12.9 118.609 10.8ZM155.417 18.24H148.337L147.287 21.45H140.297L148.067 0.210012H155.747L163.487 21.45H156.467L155.417 18.24ZM153.797 13.23L151.877 7.32001L149.957 13.23H153.797ZM175.68 21.45L171.69 13.83H171.66V21.45H165V0.210012H174.9C176.62 0.210012 178.09 0.520012 179.31 1.14001C180.53 1.74001 181.44 2.57001 182.04 3.63001C182.66 4.67001 182.97 5.85001 182.97 7.17001C182.97 8.59001 182.57 9.85001 181.77 10.95C180.99 12.05 179.86 12.84 178.38 13.32L183 21.45H175.68ZM171.66 9.39001H174.3C174.94 9.39001 175.42 9.25001 175.74 8.97001C176.06 8.67001 176.22 8.21001 176.22 7.59001C176.22 7.03001 176.05 6.59001 175.71 6.27001C175.39 5.95001 174.92 5.79001 174.3 5.79001H171.66V9.39001ZM191.758 5.52001V8.13001H198.358V13.14H191.758V16.14H199.258V21.45H185.098V0.210012H199.258V5.52001H191.758Z" fill="#01CFC9"/>
</svg>
